<svg width="30" height="30" viewBox="0 0 30 30" fill="none" xmlns="http://www.w3.org/2000/svg">
<path d="M5.08105 8.75H24.5405M12.3784 13.75V21.25M17.2432 13.75V21.25M6.29727 8.75L7.51349 23.75C7.51349 24.413 7.76976 25.0489 8.22593 25.5178C8.6821 25.9866 9.3008 26.25 9.94592 26.25H19.6756C20.3208 26.25 20.9395 25.9866 21.3956 25.5178C21.8518 25.0489 22.1081 24.413 22.1081 23.75L23.3243 8.75M11.1621 8.75V5C11.1621 4.66848 11.2903 4.35054 11.5184 4.11612C11.7464 3.8817 12.0558 3.75 12.3784 3.75H17.2432C17.5658 3.75 17.8751 3.8817 18.1032 4.11612C18.3313 4.35054 18.4594 4.66848 18.4594 5V8.75" stroke="black" stroke-width="2.08333" stroke-linecap="round" stroke-linejoin="round"/>
</svg>
