<svg width="25" height="26" viewBox="0 0 25 26" fill="currentColor" xmlns="http://www.w3.org/2000/svg">
<g clip-path="url(#clip0_368_5569)">
<path d="M12.5 13C14.1245 13 15.6824 12.3415 16.831 11.1694C17.9797 9.99731 18.625 8.4076 18.625 6.75C18.625 5.0924 17.9797 3.50268 16.831 2.33058C15.6824 1.15848 14.1245 0.5 12.5 0.5C10.8755 0.5 9.31763 1.15848 8.16897 2.33058C7.02031 3.50268 6.375 5.0924 6.375 6.75C6.375 8.4076 7.02031 9.99731 8.16897 11.1694C9.31763 12.3415 10.8755 13 12.5 13ZM5.0625 14.7857C4.25027 14.7857 3.47132 15.115 2.89699 15.701C2.32266 16.2871 2 17.0819 2 17.9107V18.3571C2 20.4937 3.33263 22.3009 5.22438 23.5295C7.12663 24.7652 9.70175 25.5 12.5 25.5C15.2983 25.5 17.8725 24.7652 19.7756 23.5295C21.6674 22.3009 23 20.4937 23 18.3571V17.9107C23 17.0819 22.6773 16.2871 22.103 15.701C21.5287 15.115 20.7497 14.7857 19.9375 14.7857H5.0625Z" fill="currentColor"/>
</g>
<defs>
<clipPath id="clip0_368_5569">
<rect y="0.5" width="25" height="25" rx="12.5" fill="currentColor"/>
</clipPath>
</defs>
</svg>
