<svg width="100" height="80" viewBox="0 0 100 80" fill="none" xmlns="http://www.w3.org/2000/svg">
<g clip-path="url(#clip0_391_3079)">
<path d="M66.5154 39.9999C63.8748 39.9999 61.3904 38.5937 60.0466 36.3437L49.9998 19.6874L39.9685 36.3437C38.6092 38.6093 36.1248 40.0155 33.4842 40.0155C32.781 40.0155 32.0779 39.9218 31.406 39.7187L9.99978 33.5937V61.4062C9.99978 63.703 11.5623 65.703 13.781 66.2499L47.5623 74.703C49.156 75.0937 50.8279 75.0937 52.406 74.703L86.2185 66.2499C88.4373 65.6874 89.9998 63.6874 89.9998 61.4062V33.5937L68.5935 39.703C67.9217 39.9062 67.2185 39.9999 66.5154 39.9999ZM99.7341 22.4687L91.6873 6.40617C91.2029 5.43742 90.156 4.87492 89.0779 5.01554L49.9998 9.99992L64.3279 33.7655C64.9217 34.7499 66.1092 35.2187 67.2185 34.9062L98.1404 26.078C99.6873 25.6249 100.437 23.9062 99.7341 22.4687ZM8.31228 6.40617L0.265402 22.4687C-0.453348 23.9062 0.312277 25.6249 1.84353 26.0624L32.7654 34.8905C33.8748 35.203 35.0623 34.7343 35.656 33.7499L49.9998 9.99992L10.906 5.01554C9.8279 4.89054 8.79665 5.43742 8.31228 6.40617Z" fill="#CCD47C"/>
</g>
<defs>
<clipPath id="clip0_391_3079">
<rect width="100" height="80" fill="white"/>
</clipPath>
</defs>
</svg>
