<svg width="100" height="100" viewBox="0 0 100 100" fill="none" xmlns="http://www.w3.org/2000/svg">
<path d="M90.0005 46.75L70.8338 31.3333V20.8333C70.9358 18.7289 70.1992 16.6699 68.7855 15.1078C67.3717 13.5456 65.3962 12.6078 63.2921 12.5H15.7921C13.7028 12.629 11.7485 13.576 10.3525 15.1358C8.95644 16.6956 8.23118 18.7426 8.3338 20.8333V62.5C8.29512 64.1546 8.75002 65.7833 9.6405 67.1783C10.531 68.5734 11.8167 69.6718 13.3338 70.3333C12.5664 72.2106 12.2674 74.2464 12.4624 76.2651C12.6574 78.2837 13.3407 80.2246 14.4533 81.9202C15.5658 83.6159 17.0742 85.0154 18.8484 85.998C20.6225 86.9805 22.6091 87.5167 24.6367 87.5601C26.6643 87.6036 28.672 87.153 30.4866 86.2473C32.3012 85.3417 33.8682 84.0081 35.0523 82.3617C36.2365 80.7152 37.0023 78.8054 37.2836 76.7969C37.5649 74.7885 37.3534 72.7418 36.6671 70.8333H63.1671C62.4819 72.7214 62.2617 74.7467 62.5252 76.738C62.7887 78.7291 63.5281 80.6275 64.681 82.2723C65.8338 83.9171 67.3659 85.2599 69.1478 86.1869C70.9296 87.114 72.9086 87.598 74.9171 87.598C76.9257 87.598 78.9047 87.114 80.6865 86.1869C82.4683 85.2599 84.0005 83.9171 85.1533 82.2723C86.3061 80.6275 87.0456 78.7291 87.3091 76.738C87.5726 74.7467 87.3524 72.7214 86.6671 70.8333H87.5005C88.6055 70.8333 89.6653 70.3943 90.4467 69.6129C91.2281 68.8315 91.6671 67.7717 91.6671 66.6667V50C91.6544 49.3673 91.4977 48.7458 91.2089 48.1826C90.9201 47.6195 90.5068 47.1296 90.0005 46.75ZM83.3338 52V62.5H70.8338V42L83.3338 52ZM29.1671 75C29.1671 75.8241 28.9228 76.6297 28.4649 77.3149C28.0071 78.0001 27.3563 78.5341 26.595 78.8495C25.8336 79.1649 24.9958 79.2474 24.1876 79.0866C23.3793 78.9258 22.6369 78.529 22.0542 77.9463C21.4715 77.3636 21.0746 76.6211 20.9139 75.8129C20.7531 75.0046 20.8356 74.1668 21.151 73.4055C21.4663 72.6441 22.0004 71.9934 22.6856 71.5355C23.3708 71.0777 24.1764 70.8333 25.0005 70.8333C26.1055 70.8333 27.1653 71.2723 27.9467 72.0537C28.7281 72.8351 29.1671 73.8949 29.1671 75ZM79.1671 75C79.1671 75.8241 78.9228 76.6297 78.4649 77.3149C78.0071 78.0001 77.3563 78.5341 76.595 78.8495C75.8336 79.1649 74.9958 79.2474 74.1876 79.0866C73.3793 78.9258 72.6369 78.529 72.0542 77.9463C71.4715 77.3636 71.0746 76.6211 70.9139 75.8129C70.7531 75.0046 70.8356 74.1668 71.151 73.4055C71.4663 72.6441 72.0004 71.9934 72.6856 71.5355C73.3708 71.0777 74.1764 70.8333 75.0005 70.8333C76.1055 70.8333 77.1653 71.2723 77.9467 72.0537C78.7281 72.8351 79.1671 73.8949 79.1671 75Z" fill="#CCD47C"/>
</svg>
