<svg width="25" height="25" viewBox="0 0 25 25" fill="none" xmlns="http://www.w3.org/2000/svg">
<path d="M6.06667 3.78331L12.5 10.2166L18.9 3.81665C19.0414 3.66618 19.2117 3.5458 19.4007 3.46275C19.5897 3.3797 19.7936 3.33567 20 3.33331C20.442 3.33331 20.866 3.50891 21.1785 3.82147C21.4911 4.13403 21.6667 4.55795 21.6667 4.99998C21.6706 5.20432 21.6326 5.40729 21.5553 5.59645C21.4779 5.78561 21.3627 5.95696 21.2167 6.09998L14.7333 12.5L21.2167 18.9833C21.4914 19.252 21.6524 19.616 21.6667 20C21.6667 20.442 21.4911 20.8659 21.1785 21.1785C20.866 21.4911 20.442 21.6666 20 21.6666C19.7876 21.6755 19.5757 21.64 19.3777 21.5625C19.1797 21.4851 19 21.3673 18.85 21.2166L12.5 14.7833L6.08334 21.2C5.94252 21.3454 5.77428 21.4616 5.58834 21.5417C5.40241 21.6217 5.20245 21.6642 5.00001 21.6666C4.55798 21.6666 4.13406 21.4911 3.8215 21.1785C3.50893 20.8659 3.33334 20.442 3.33334 20C3.32945 19.7956 3.36737 19.5927 3.44475 19.4035C3.52213 19.2144 3.63735 19.043 3.78334 18.9L10.2667 12.5L3.78334 6.01665C3.50865 5.74791 3.34757 5.384 3.33334 4.99998C3.33334 4.55795 3.50893 4.13403 3.8215 3.82147C4.13406 3.50891 4.55798 3.33331 5.00001 3.33331C5.40001 3.33831 5.78334 3.49998 6.06667 3.78331Z" fill="#CCD47C"/>
</svg>
