<svg width="100" height="100" viewBox="0 0 100 100" fill="none" xmlns="http://www.w3.org/2000/svg">
<path d="M25 12.5C22.9167 12.5 21.25 13.3333 20 15L14.5833 21.6667C13.3333 23.3333 12.5 25 12.5 27.0833V79.1667C12.5 83.75 16.25 87.5 20.8333 87.5H55.4167C54.5833 85 54.1667 82.0833 54.1667 79.1667C54.1667 65.4167 65.4167 54.1667 79.1667 54.1667C82.0833 54.1667 85 54.5833 87.5 55.4167V27.0833C87.5 25 86.6667 23.3333 85.4167 21.6667L79.5833 14.5833C78.75 13.3333 77.0833 12.5 75 12.5H25ZM24.5833 16.6667H74.5833L78.3333 20.8333H21.25L24.5833 16.6667ZM25 62.5H50V75H25V62.5ZM88.75 65.8333L73.75 80.8333L67.0833 74.1667L62.5 79.1667L74.1667 91.6667L94.1667 71.6667L88.75 65.8333Z" fill="#CCD47C"/>
</svg>
