<svg width="25" height="26" viewBox="0 0 25 26" fill="currentColor" xmlns="http://www.w3.org/2000/svg">
<path d="M6.23698 1.85649C7.34281 1.6681 8.47683 1.73025 9.55545 2.03833C10.6341 2.34642 11.6298 2.89259 12.4692 3.6366L12.5154 3.67782L12.5579 3.64035C13.359 2.93742 14.3009 2.41337 15.3206 2.10318C16.3404 1.79299 17.4145 1.70378 18.4715 1.84149L18.7789 1.88647C20.1111 2.11646 21.3564 2.70239 22.3828 3.58222C23.4092 4.46205 24.1785 5.60302 24.6093 6.88432C25.0401 8.16561 25.1162 9.53953 24.8298 10.8606C24.5433 12.1816 23.9048 13.4006 22.982 14.3885L22.7571 14.6196L22.6971 14.6708L13.3888 23.8887C13.174 24.1012 12.8894 24.2287 12.5877 24.2476C12.2861 24.2664 11.9879 24.1753 11.7483 23.9911L11.6308 23.8887L2.26876 14.6171C1.27698 13.6523 0.571646 12.4318 0.230873 11.0909C-0.1099 9.75001 -0.0728136 8.34096 0.338025 7.01983C0.748864 5.6987 1.51742 4.51703 2.55858 3.60571C3.59974 2.69438 4.87288 2.08896 6.23698 1.85649Z" fill="currentColor"/>
</svg>
