<svg width="24" height="22" viewBox="0 0 24 22" fill="currentColor" xmlns="http://www.w3.org/2000/svg">
<path d="M5.9875 0.102226C7.0491 -0.078621 8.13776 -0.0189641 9.17323 0.276799C10.2087 0.572562 11.1646 1.09689 11.9704 1.81113L12.0148 1.85071L12.0556 1.81473C12.8247 1.13992 13.7289 0.636839 14.7078 0.339053C15.6868 0.0412681 16.718 -0.0443758 17.7326 0.0878351L18.0277 0.131007C19.3067 0.351798 20.5022 0.914294 21.4875 1.75893C22.4729 2.60357 23.2114 3.6989 23.6249 4.92894C24.0385 6.15898 24.1116 7.47794 23.8366 8.74615C23.5616 10.0144 22.9486 11.1846 22.0627 12.1329L21.8468 12.3548L21.7892 12.404L12.8532 21.2531C12.647 21.4572 12.3738 21.5796 12.0842 21.5977C11.7947 21.6157 11.5083 21.5283 11.2783 21.3514L11.1656 21.2531L2.17801 12.3524C1.2259 11.4262 0.54878 10.2546 0.221638 8.96728C-0.105504 7.68001 -0.0699011 6.32733 0.324504 5.05904C0.71891 3.79075 1.45673 2.65635 2.45624 1.78148C3.45575 0.906606 4.67796 0.325399 5.9875 0.102226Z" fill="currentColor"/>
</svg>
