<svg width="21" height="21" viewBox="0 0 21 21" fill="none" xmlns="http://www.w3.org/2000/svg">
<path fill-rule="evenodd" clip-rule="evenodd" d="M6.2712 0.135724C7.33786 0.0853914 7.6787 0.0732422 10.3945 0.0732422C13.1104 0.0732422 13.4512 0.0853914 14.5179 0.135724C16.1429 0.212958 17.5704 0.627766 18.7162 1.82099C19.862 3.01421 20.2604 4.50076 20.3345 6.19296C20.3829 7.30375 20.3945 7.65868 20.3945 10.4868C20.3945 13.315 20.3829 13.6699 20.3345 14.7807C20.2604 16.4729 19.862 17.9595 18.7162 19.1527C17.5704 20.3459 16.1429 20.7607 14.5179 20.8379C13.4512 20.8883 13.1104 20.9004 10.3945 20.9004C7.6787 20.9004 7.33786 20.8883 6.2712 20.8379C4.6462 20.7607 3.2187 20.3459 2.07286 19.1527C0.927031 17.9595 0.528698 16.4729 0.454531 14.7807C0.406198 13.6699 0.394531 13.315 0.394531 10.4868C0.394531 7.65868 0.406198 7.30375 0.454531 6.19296C0.528698 4.50076 0.927031 3.01421 2.07286 1.82099C3.2187 0.627766 4.6462 0.212958 6.2712 0.135724ZM14.4345 2.01032C13.3803 1.95999 13.0636 1.94958 10.3936 1.94958C7.72365 1.94958 7.40698 1.95999 6.35281 2.01032C5.21448 2.06413 4.15865 2.3019 3.34615 3.14801C2.53365 3.99411 2.30531 5.09361 2.25365 6.27903C2.20531 7.37679 2.19531 7.70656 2.19531 10.487C2.19531 13.2674 2.20531 13.5972 2.25365 14.6949C2.30531 15.8804 2.53365 16.9799 3.34615 17.826C4.15865 18.6721 5.21448 18.9099 6.35281 18.9637C7.40698 19.014 7.72365 19.0244 10.3936 19.0244C13.0636 19.0244 13.3803 19.014 14.4345 18.9637C15.5728 18.9099 16.6286 18.6721 17.4411 17.826C18.2536 16.9799 18.482 15.8804 18.5336 14.6949C18.582 13.5972 18.592 13.2674 18.592 10.487C18.592 7.70656 18.582 7.37679 18.5336 6.27903C18.482 5.09361 18.2536 3.99411 17.4411 3.14801C16.6286 2.3019 15.5728 2.06413 14.4345 2.01032ZM5.25781 10.4862C5.25781 7.53309 7.55698 5.13884 10.3928 5.13884C13.2286 5.13884 15.5278 7.53309 15.5278 10.4862C15.5278 13.4393 13.2286 15.8336 10.3928 15.8336C7.55698 15.8336 5.25781 13.4393 5.25781 10.4862ZM7.05859 10.4864C7.05859 12.4033 8.55109 13.9576 10.3919 13.9576C12.2328 13.9576 13.7253 12.4033 13.7253 10.4864C13.7253 8.5694 12.2328 7.01517 10.3919 7.01517C8.55109 7.01517 7.05859 8.5694 7.05859 10.4864ZM16.9312 4.9283C16.9312 5.61845 16.394 6.17793 15.7312 6.17793C15.0685 6.17793 14.5312 5.61845 14.5312 4.9283C14.5312 4.23815 15.0685 3.67867 15.7312 3.67867C16.394 3.67867 16.9312 4.23815 16.9312 4.9283Z" fill="white"/>
</svg>
