<svg width="25" height="25" viewBox="0 0 25 25" fill="none" xmlns="http://www.w3.org/2000/svg">
<g clip-path="url(#clip0_16_1103)">
<path d="M17.2613 19.1531C15.1112 20.8221 12.4059 21.609 9.69613 21.3535C6.98634 21.0981 4.47573 19.8195 2.67535 17.7781C0.874966 15.7367 -0.0798578 13.0858 0.0052356 10.3652C0.090329 7.6445 1.20894 5.05852 3.13338 3.1336C5.05815 1.20903 7.64395 0.0903355 10.3644 0.00523597C13.0849 -0.0798636 15.7355 0.875029 17.7768 2.67554C19.8181 4.47605 21.0966 6.98684 21.352 9.69683C21.6074 12.4068 20.8206 15.1123 19.1517 17.2625L24.5732 22.6844C24.7492 22.8479 24.8779 23.0559 24.9457 23.2864C25.0135 23.5169 25.0179 23.7614 24.9584 23.9942C24.8989 24.227 24.7777 24.4394 24.6075 24.6091C24.4374 24.7788 24.2247 24.8995 23.9918 24.9584C23.7593 25.0178 23.515 25.0135 23.2847 24.9461C23.0544 24.8786 22.8465 24.7504 22.6828 24.5749L17.2613 19.1531ZM18.7237 10.6992C18.7395 9.63557 18.5437 8.57935 18.1477 7.59205C17.7516 6.60474 17.1632 5.70605 16.4167 4.94825C15.6702 4.19044 14.7804 3.58866 13.7992 3.17791C12.818 2.76715 11.7649 2.55562 10.7011 2.55562C9.63743 2.55562 8.58433 2.76715 7.60311 3.17791C6.62189 3.58866 5.73213 4.19044 4.9856 4.94825C4.23906 5.70605 3.65066 6.60474 3.2546 7.59205C2.85855 8.57935 2.66276 9.63557 2.67862 10.6992C2.71003 12.8064 3.56908 14.8166 5.07018 16.2956C6.57128 17.7746 8.59392 18.6036 10.7011 18.6036C12.8084 18.6036 14.831 17.7746 16.3321 16.2956C17.8332 14.8166 18.6923 12.8064 18.7237 10.6992Z" fill="#CCD47C"/>
</g>
<defs>
<clipPath id="clip0_16_1103">
<rect width="25" height="25" fill="white"/>
</clipPath>
</defs>
</svg>
