<svg width="30" height="30" viewBox="0 0 30 30" fill="none" xmlns="http://www.w3.org/2000/svg">
<path d="M15 23.75L5 23.75L15 23.75ZM25 6.25L21.25 6.25L25 6.25ZM25 23.75L20 23.75L25 23.75ZM16.25 6.25L5 6.25L16.25 6.25ZM8.75 15L5 15L8.75 15ZM25 15L13.75 15L25 15Z" fill="black"/>
<path d="M15 23.75L5 23.75M25 6.25L21.25 6.25M25 23.75L20 23.75M16.25 6.25L5 6.25M8.75 15L5 15M25 15L13.75 15" stroke="black" stroke-linecap="round"/>
<path d="M20 23.75C20 22.3693 18.8807 21.25 17.5 21.25C16.1193 21.25 15 22.3693 15 23.75C15 25.1307 16.1193 26.25 17.5 26.25C18.8807 26.25 20 25.1307 20 23.75Z" fill="black" stroke="black" stroke-linecap="round"/>
<path d="M13.75 15C13.75 13.6193 12.6307 12.5 11.25 12.5C9.86929 12.5 8.75 13.6193 8.75 15C8.75 16.3807 9.86929 17.5 11.25 17.5C12.6307 17.5 13.75 16.3807 13.75 15Z" fill="black" stroke="black" stroke-linecap="round"/>
<path d="M21.25 6.25C21.25 4.86929 20.1307 3.75 18.75 3.75C17.3693 3.75 16.25 4.86929 16.25 6.25C16.25 7.63071 17.3693 8.75 18.75 8.75C20.1307 8.75 21.25 7.63071 21.25 6.25Z" fill="black" stroke="black" stroke-linecap="round"/>
</svg>
