<svg width="25" height="26" viewBox="0 0 25 26" fill="none" xmlns="http://www.w3.org/2000/svg">
<path d="M20.8334 13.4147C20.8334 15.6249 19.9554 17.7445 18.3926 19.3073C16.8298 20.8701 14.7102 21.748 12.5 21.748C10.2899 21.748 8.17029 20.8701 6.60748 19.3073C5.04468 17.7445 4.16671 15.6249 4.16671 13.4147C4.16671 11.2046 5.04468 9.08496 6.60748 7.52216C8.17029 5.95935 10.2899 5.08138 12.5 5.08138C14.7102 5.08138 16.8298 5.95935 18.3926 7.52216C19.9554 9.08496 20.8334 11.2046 20.8334 13.4147ZM12.5 23.8314C18.2532 23.8314 22.9167 19.1678 22.9167 13.4147C22.9167 7.66159 18.2532 2.99805 12.5 2.99805C6.74692 2.99805 2.08337 7.66159 2.08337 13.4147C2.08337 19.1678 6.74692 23.8314 12.5 23.8314ZM12.873 10.6876C11.8605 11.1092 9.8358 11.9817 6.799 13.3053C6.30525 13.5012 6.04692 13.6928 6.024 13.8803C5.98442 14.197 6.38129 14.322 6.92192 14.4918L7.149 14.5647C7.68025 14.7376 8.39692 14.9397 8.76879 14.948C9.10629 14.955 9.48268 14.8161 9.89796 14.5314C12.7355 12.6147 14.2 11.6463 14.2917 11.6262C14.3573 11.6116 14.4469 11.5928 14.5073 11.647C14.5688 11.7012 14.5625 11.8033 14.5563 11.8314C14.5167 11.9991 12.9584 13.448 12.1521 14.197C11.9132 14.422 11.6761 14.6487 11.4407 14.8772C10.9469 15.3533 10.5761 15.7105 11.4615 16.2939C12.3584 16.8855 13.2636 17.4751 14.1386 18.0991C14.5698 18.4074 14.9573 18.6824 15.4365 18.6397C15.7146 18.6137 16.0021 18.3522 16.148 17.571C16.4938 15.7272 17.1719 11.7293 17.3282 10.0814C17.3372 9.94468 17.3313 9.80741 17.3105 9.672C17.2981 9.56303 17.2454 9.46265 17.1625 9.39076C17.0375 9.28867 16.8448 9.26784 16.7594 9.26888C16.3677 9.27617 15.7667 9.48451 12.874 10.6876" fill="white"/>
</svg>
