<svg width="25" height="26" viewBox="0 0 25 26" fill="none" xmlns="http://www.w3.org/2000/svg">
<path d="M19.8437 6.02936C18.8887 5.0647 17.7512 4.29985 16.4975 3.77941C15.2438 3.25898 13.899 2.99338 12.5416 2.99811C6.85413 2.99811 2.21871 7.63352 2.21871 13.321C2.21871 15.1439 2.69788 16.9148 3.59371 18.4773L2.13538 23.8314L7.60413 22.3939C9.11454 23.2169 10.8125 23.6544 12.5416 23.6544C18.2291 23.6544 22.8645 19.0189 22.8645 13.3314C22.8645 10.571 21.7916 7.97728 19.8437 6.02936ZM12.5416 21.9044C11 21.9044 9.48954 21.4877 8.16663 20.7064L7.85413 20.5189L4.60413 21.3731L5.46871 18.2064L5.26038 17.8835C4.40386 16.5158 3.94906 14.9348 3.94788 13.321C3.94788 8.59186 7.80204 4.73769 12.5312 4.73769C14.8229 4.73769 16.9791 5.63353 18.5937 7.25853C19.3932 8.05432 20.0267 9.00088 20.4577 10.0433C20.8886 11.0858 21.1083 12.2034 21.1041 13.3314C21.125 18.0606 17.2708 21.9044 12.5416 21.9044ZM17.25 15.4877C16.9895 15.3627 15.7187 14.7377 15.4895 14.6439C15.25 14.5606 15.0833 14.5189 14.9062 14.7689C14.7291 15.0294 14.2395 15.6127 14.0937 15.7794C13.9479 15.9564 13.7916 15.9773 13.5312 15.8419C13.2708 15.7169 12.4375 15.4356 11.4583 14.5606C10.6875 13.8731 10.177 13.0294 10.0208 12.7689C9.87496 12.5085 9.99996 12.3731 10.1354 12.2377C10.25 12.1231 10.3958 11.9356 10.5208 11.7898C10.6458 11.6439 10.6979 11.5294 10.7812 11.3627C10.8645 11.1856 10.8229 11.0398 10.7604 10.9148C10.6979 10.7898 10.177 9.51894 9.96871 8.99811C9.76038 8.49811 9.54163 8.56061 9.38538 8.55019H8.88538C8.70829 8.55019 8.43746 8.61269 8.19788 8.87311C7.96871 9.13353 7.30204 9.75853 7.30204 11.0294C7.30204 12.3002 8.22913 13.5294 8.35413 13.696C8.47913 13.8731 10.177 16.4773 12.7604 17.5919C13.375 17.8627 13.8541 18.0189 14.2291 18.1335C14.8437 18.3314 15.4062 18.3002 15.8541 18.2377C16.3541 18.1648 17.3854 17.6127 17.5937 17.0085C17.8125 16.4044 17.8125 15.8939 17.7395 15.7794C17.6666 15.6648 17.5104 15.6127 17.25 15.4877Z" fill="white"/>
</svg>
