<svg width="91" height="90" viewBox="0 0 91 90" fill="none" xmlns="http://www.w3.org/2000/svg">
<path d="M45.5 39.375C48.6066 39.375 51.125 36.8566 51.125 33.75C51.125 30.6434 48.6066 28.125 45.5 28.125C42.3934 28.125 39.875 30.6434 39.875 33.75C39.875 36.8566 42.3934 39.375 45.5 39.375Z" fill="#CCD47C"/>
<path d="M45.5 5.625C29.9926 5.625 17.375 17.6924 17.375 32.5195C17.375 39.5807 20.5936 48.9709 26.941 60.4301C32.0387 69.6305 37.9361 77.9502 41.0035 82.0898C41.5218 82.7972 42.1995 83.3724 42.9817 83.7689C43.7638 84.1654 44.6284 84.3721 45.5053 84.3721C46.3822 84.3721 47.2467 84.1654 48.0289 83.7689C48.811 83.3724 49.4887 82.7972 50.007 82.0898C53.0691 77.9502 58.9719 69.6305 64.0695 60.4301C70.4064 48.9744 73.625 39.5842 73.625 32.5195C73.625 17.6924 61.0074 5.625 45.5 5.625ZM45.5 45C43.275 45 41.0999 44.3402 39.2498 43.104C37.3998 41.8679 35.9578 40.1109 35.1064 38.0552C34.2549 35.9995 34.0321 33.7375 34.4662 31.5552C34.9002 29.3729 35.9717 27.3684 37.545 25.795C39.1184 24.2217 41.1229 23.1502 43.3052 22.7162C45.4875 22.2821 47.7495 22.5049 49.8052 23.3564C51.8609 24.2078 53.6179 25.6498 54.854 27.4998C56.0902 29.3499 56.75 31.525 56.75 33.75C56.7467 36.7327 55.5604 39.5923 53.4514 41.7014C51.3423 43.8104 48.4827 44.9967 45.5 45Z" fill="#CCD47C"/>
</svg>
