<svg width="91" height="90" viewBox="0 0 91 90" fill="none" xmlns="http://www.w3.org/2000/svg">
<g clip-path="url(#clip0_368_5388)">
<path d="M8.255 20.5575L41.5362 53.8425C42.5208 54.8277 43.8359 55.4127 45.227 55.484C46.618 55.5554 47.986 55.1081 49.0662 54.2287L49.4937 53.8425L82.7525 20.58C82.8612 20.9925 82.9325 21.4125 82.97 21.8437L83 22.5V67.5C83.0006 69.3922 82.286 71.2146 80.9994 72.6021C79.7128 73.9895 77.9493 74.8393 76.0625 74.9813L75.5 75H15.5C13.6078 75.0006 11.7854 74.286 10.3979 72.9994C9.01051 71.7128 8.16066 69.9493 8.01875 68.0625L8 67.5V22.5C8 22.05 8.0375 21.615 8.1125 21.1875L8.255 20.5575ZM75.5 15C75.9537 15 76.4 15.0375 76.8312 15.1163L77.4687 15.2625L45.5187 47.2125L13.5575 15.255C13.97 15.1425 14.3975 15.0675 14.8325 15.03L15.5 15H75.5Z" fill="#CCD47C"/>
</g>
<defs>
<clipPath id="clip0_368_5388">
<rect width="90" height="90" fill="white" transform="translate(0.5)"/>
</clipPath>
</defs>
</svg>
