<svg width="91" height="90" viewBox="0 0 91 90" fill="none" xmlns="http://www.w3.org/2000/svg">
<path d="M62.5853 48.3974L60.879 50.0962C60.879 50.0962 56.8178 54.1312 45.7365 43.1137C34.6553 32.0962 38.7165 28.0612 38.7165 28.0612L39.789 26.9887C42.4403 24.3562 42.6915 20.1262 40.3778 17.0362L35.6528 10.7249C32.7878 6.89992 27.2565 6.39367 23.9753 9.65617L18.0878 15.5062C16.464 17.1262 15.3765 19.2187 15.5078 21.5437C15.8453 27.4949 18.5378 40.2937 33.5528 55.2262C49.479 71.0587 64.4228 71.6887 70.5315 71.1187C72.4665 70.9387 74.1465 69.9562 75.5003 68.6062L80.8253 63.3112C84.4253 59.7374 83.4128 53.6062 78.8078 51.1049L71.6453 47.2087C68.6228 45.5699 64.9478 46.0499 62.5853 48.3974Z" fill="#CCD47C"/>
</svg>
