<svg width="90" height="90" viewBox="0 0 90 90" fill="none" xmlns="http://www.w3.org/2000/svg">
<path d="M26.25 41.25H33.75V48.75H26.25V41.25ZM26.25 56.25H33.75V63.75H26.25V56.25ZM41.25 41.25H48.75V48.75H41.25V41.25ZM41.25 56.25H48.75V63.75H41.25V56.25ZM56.25 41.25H63.75V48.75H56.25V41.25ZM56.25 56.25H63.75V63.75H56.25V56.25Z" fill="#CCD47C"/>
<path d="M18.75 82.5H71.25C75.3863 82.5 78.75 79.1362 78.75 75V22.5C78.75 18.3637 75.3863 15 71.25 15H63.75V7.5H56.25V15H33.75V7.5H26.25V15H18.75C14.6137 15 11.25 18.3637 11.25 22.5V75C11.25 79.1362 14.6137 82.5 18.75 82.5ZM71.25 30L71.2537 75H18.75V30H71.25Z" fill="#CCD47C"/>
</svg>
